<?xml version="1.0" encoding="UTF-8"?>
<svg id="Layer_2" xmlns="http://www.w3.org/2000/svg" viewBox="0 0 488.98 401.25"><defs>
<style>.cls-1{fill:#4b5563;}.cls-1,.cls-2{stroke-width:0px;}.cls-2{fill:#0ea5e9;}</style>
</defs><g id="Layer_1-2"><path class="cls-2" d="m372.43,119.98c-9.34,0-16.94,7.6-16.94,16.94,0,2.5.56,4.86,1.53,7-9.87,7.03-20.91,13.28-32.89,18.61-3.51-5.29-9.52-8.79-16.33-8.79-10.81,0-19.6,8.79-19.6,19.6,0,.55.04,1.09.08,1.62-10.34,2.69-20.83,4.69-31.32,5.99-2.14-9.81-9.6-17.63-19.2-20.31,2.84-12.9,7.56-25.31,14.07-37,2.44.89,5.05,1.4,7.79,1.4,10.94,0,20.1-7.73,22.32-18.02,13.59,1.34,26.65,4.13,38.94,8.32-.11.76-.18,1.52-.18,2.3,0,9.34,7.6,16.94,16.93,16.94s16.94-7.6,16.94-16.94-7.6-16.94-16.94-16.94c-5.67,0-10.69,2.81-13.77,7.11-13.15-4.52-27.14-7.51-41.67-8.9-.52-3.6-1.87-6.93-3.87-9.79,7.57-7.43,15.95-14.24,24.98-20.31,3.73,4.1,9.09,6.69,15.06,6.69,11.24,0,20.38-9.14,20.38-20.38s-9.14-20.38-20.38-20.38-20.38,9.14-20.38,20.38c0,2.36.42,4.63,1.17,6.74-9.6,6.42-18.51,13.65-26.55,21.55-3.69-2.56-8.16-4.08-12.99-4.08-2.61,0-5.11.46-7.45,1.27-7.23-10.48-15.16-18.86-21.37-24.63.83-1.84,1.3-3.88,1.3-6.03,0-8.15-6.63-14.79-14.78-14.79s-14.79,6.63-14.79,14.79,6.64,14.78,14.79,14.78c3.07,0,5.92-.94,8.29-2.55,5.7,5.34,12.89,12.95,19.48,22.39-4.44,3.67-7.46,8.98-8.15,14.99-16.77,2.02-33.46,5.94-48.73,11.46-3.08-4.22-8.05-6.97-13.66-6.97-9.33,0-16.93,7.6-16.93,16.94s7.6,16.94,16.93,16.94,16.94-7.6,16.94-16.94c0-.84-.08-1.67-.2-2.48,14.47-5.19,30.28-8.91,46.18-10.86,1.16,4.72,3.79,8.87,7.38,11.92-7.06,12.64-12.14,26.09-15.14,40.08-14.59.42-26.33,12.39-26.33,27.07s12.17,27.11,27.11,27.11c6.53,0,12.53-2.32,17.21-6.18,8.29,6.7,16.73,12.69,25.16,17.85-.58,1.89-.9,3.89-.9,5.97,0,3.8,1.07,7.35,2.9,10.4-6.01,4.84-12.04,9-16.87,12.12-2.44-2.18-5.65-3.52-9.18-3.52-7.61,0-13.8,6.19-13.8,13.8s6.19,13.8,13.8,13.8,13.8-6.19,13.8-13.8c0-1.16-.16-2.28-.43-3.36,5.15-3.32,11.66-7.82,18.14-13.07,3.29,2.4,7.31,3.84,11.68,3.9,1.64,5.7,3.65,11.01,6,15.89-2.26,2.46-3.66,5.73-3.66,9.33,0,7.61,6.19,13.8,13.8,13.8s13.8-6.19,13.8-13.8-6.19-13.8-13.8-13.8c-1.08,0-2.13.14-3.14.37-1.94-4.1-3.62-8.56-5.03-13.32,7.36-3.05,12.56-10.3,12.56-18.74,0-1.37-.14-2.7-.4-3.98,7.38-3.7,14.24-7.95,20.46-12.7,2.14,1.38,4.68,2.18,7.41,2.18,7.61,0,13.8-6.19,13.8-13.8s-6.19-13.8-13.8-13.8-13.8,6.19-13.8,13.8c0,1.94.41,3.79,1.13,5.46-5.59,4.23-11.74,8.04-18.36,11.39-3.66-5.33-9.79-8.84-16.73-8.84-6.21,0-11.77,2.81-15.49,7.22-7.91-4.86-15.84-10.49-23.64-16.78,2.43-3.67,3.98-7.96,4.37-12.58,11.09-1.35,22.2-3.47,33.13-6.33,3.33,6.07,9.79,10.19,17.19,10.19,10.81,0,19.6-8.79,19.6-19.59,0-1.12-.12-2.21-.3-3.28,12.73-5.65,24.46-12.29,34.94-19.8,2.87,2.24,6.47,3.59,10.39,3.59,9.34,0,16.94-7.6,16.94-16.94s-7.6-16.94-16.94-16.94h0Zm-34.78-11.18c4.88,0,8.85,3.97,8.85,8.85s-3.97,8.85-8.85,8.85-8.85-3.97-8.85-8.85,3.97-8.85,8.85-8.85h0Zm-19.27-65.95c6.78,0,12.3,5.52,12.3,12.3s-5.52,12.29-12.3,12.29-12.29-5.51-12.29-12.29,5.51-12.3,12.29-12.3h0Zm-101.05,13.82c-3.7,0-6.7-3.01-6.7-6.7s3.01-6.7,6.7-6.7,6.7,3.01,6.7,6.7-3.01,6.7-6.7,6.7h0Zm-42.77,73.18c-4.88,0-8.85-3.97-8.85-8.85s3.97-8.85,8.85-8.85,8.85,3.97,8.85,8.85-3.97,8.85-8.85,8.85h0Zm85.07-42.41c8.13,0,14.75,6.62,14.75,14.76s-6.62,14.76-14.75,14.76-14.76-6.62-14.76-14.76,6.62-14.76,14.76-14.76h0Zm80.37,110.03c3.16,0,5.72,2.56,5.72,5.72s-2.56,5.71-5.72,5.71-5.71-2.56-5.71-5.71,2.56-5.72,5.71-5.72h0Zm-91.18,72.53c-3.15,0-5.71-2.56-5.71-5.71s2.56-5.72,5.71-5.72,5.72,2.56,5.72,5.72-2.57,5.71-5.72,5.71h0Zm65.03,6.98c0,3.15-2.56,5.71-5.71,5.71s-5.71-2.56-5.71-5.71,2.56-5.72,5.71-5.72,5.71,2.56,5.71,5.72h0Zm-21.61-57.69c6.72,0,12.19,5.47,12.19,12.2s-5.47,12.19-12.19,12.19-12.2-5.47-12.2-12.19,5.47-12.2,12.2-12.2h0Zm-61.76-13.53c-10.49,0-19.03-8.54-19.03-19.03s8.54-19.03,19.03-19.03,19.03,8.54,19.03,19.03-8.53,19.03-19.03,19.03h0Zm77.31-20.91c-6.35,0-11.51-5.16-11.51-11.51s5.17-11.52,11.51-11.52,11.51,5.17,11.51,11.52-5.17,11.51-11.51,11.51h0Zm64.63-39.08c-4.88,0-8.85-3.97-8.85-8.85s3.97-8.85,8.85-8.85,8.85,3.97,8.85,8.85-3.97,8.85-8.85,8.85h0Zm-219.99,82.39c-3.98-.43-7.8-.7-11.17-.94-9.93-.71-17.78-1.27-19.17-4.93-1.48-3.91-.16-12.41,3.92-25.27l.39-1.25c1.68-5.45-3.47-7.99-5.94-9.2-.76-.38-2.05-1.01-2.68-1.5.76-.88,2.54-2.17,3.47-2.85,2.36-1.71,4.22-3.06,4.59-5.42.19-1.21-.1-2.42-.82-3.4-1.05-1.45-2.81-2.32-5.24-3.52-.66-.33-1.65-.82-2.48-1.27.11-.18.22-.37.33-.54,2.26-3.7,5.07-8.29,4.34-12.27-.71-3.89-4.68-5.43-8.9-7.06-1.7-.66-4.61-1.79-5.89-2.79,1.72-3.39,9.94-11.37,14.51-15.82,5.05-4.91,8.22-8.03,9.68-10.22,1.68-2.52,2.08-6.75,2.75-13.77,1.29-13.49,3.45-36.07,17.27-53.66,18.24-23.22,44.51-31.82,103.2-33.54,1.8,6.14,7.47,10.64,14.18,10.64,8.15,0,14.78-6.63,14.78-14.78s-6.63-14.78-14.78-14.78c-6.78,0-12.5,4.6-14.23,10.83-53.57,1.51-87.09,8.09-109.51,36.63-15.28,19.45-17.58,43.51-18.96,57.88-.4,4.21-.86,8.98-1.44,10.05-1.06,1.59-4.89,5.31-8.59,8.9-13.65,13.26-19.34,19.62-16.57,24.83,2.01,3.76,6.6,5.54,10.65,7.12,1.17.45,2.8,1.08,3.73,1.58-.49,1.64-2.3,4.61-3.15,6-.8,1.32-1.5,2.45-1.92,3.42-2.05,4.68,2.65,7.48,6.4,9.37-3.11,2.35-6.96,5.88-5.45,10.57,1.19,3.69,4.62,5.39,7.13,6.62.43.21.98.48,1.43.73v.02c-3.27,10.27-6.65,23.03-3.78,30.59,3.22,8.49,13.34,9.21,26.15,10.12,3.46.25,7.04.5,10.88.92,23.16,2.51,35.5,9,38.85,20.46,4.38,14.98-7.37,41.6-7.49,41.87l7.38,3.3c.53-1.2,13.08-29.6,7.87-47.43-5.76-19.7-28.87-24.4-45.75-26.23h0ZM268.81,8.09c3.69,0,6.7,3.01,6.7,6.7s-3.01,6.7-6.7,6.7-6.7-3.01-6.7-6.7,3.01-6.7,6.7-6.7h0Z"/><path class="cls-1" d="m0,374.77c.04-8.42,2.38-14.94,7-19.56,4.61-4.61,10.98-6.92,19.09-6.92h4.93v6.66h-5.83c-5.59,0-9.89,1.85-12.89,5.56-3.01,3.71-4.56,8.47-4.65,14.27.09,5.8,1.64,10.55,4.65,14.26,3,3.7,7.3,5.56,12.89,5.56h5.83v6.66h-4.93c-8.12,0-14.48-2.3-19.09-6.92-4.62-4.61-6.96-11.13-7-19.56h0Zm58.93,2.42v24.06h-7.1v-52.96h7.1v22.25h23v-22.25h7.11v52.96h-7.11v-24.06h-23Zm58.04,4.69v19.37h-6.74v-33.29c0-5.45,1.76-10.09,5.27-13.92,3.51-3.83,8.03-5.75,13.58-5.75h17.32v52.96h-7.11v-46.3h-10.21c-3.69,0-6.63,1.08-8.82,3.24-2.19,2.17-3.29,5.63-3.29,10.37v6.43c2.82-2.97,6.86-4.46,12.11-4.46h6.88v6.66h-6.88c-2.92,0-5.31.35-7.15,1.06-1.84.7-3.49,1.92-4.95,3.63h0Zm61.05-26.93h-13.08v-6.66h33.29v6.66h-13.1v46.3h-7.11v-46.3Zm80.59-6.66h13.84v6.66h-13.38c-5.1,0-7.65,2.07-7.65,6.2,0,2.22,1.12,4.1,3.37,5.64,2.25,1.53,5.28,3.01,9.12,4.42,1.72.66,3.18,1.33,4.39,2.01,1.21.68,2.42,1.57,3.63,2.68,1.21,1.12,2.12,2.55,2.72,4.28.6,1.75.91,3.75.91,6.01,0,2.52-.53,4.78-1.59,6.78-1.06,1.99-2.42,3.55-4.09,4.69-1.66,1.13-3.36,1.98-5.1,2.57-1.75.58-3.45.89-5.1.94-.71.06-1.72.08-3.02.08h-11.8v-6.66h11.57c3.43,0,6.23-.72,8.41-2.16,2.16-1.43,3.25-3.54,3.25-6.31,0-1.36-.3-2.55-.91-3.59-.61-1.04-1.47-1.93-2.6-2.68-1.14-.76-2.3-1.42-3.48-1.98-1.19-.55-2.62-1.13-4.28-1.73-.46-.16-.81-.28-1.06-.38-7.93-3.03-11.89-7.97-11.89-14.83,0-4.24,1.36-7.4,4.09-9.49,2.72-2.09,6.28-3.14,10.67-3.14h0Zm43.35,17.86v35.11h-7.11v-34.8c0-5.95,1.6-10.59,4.81-13.92,3.2-3.33,7.45-4.99,12.74-4.99,5.65,0,10.03,1.62,13.14,4.85,3.1,3.23,4.65,7.34,4.65,12.33,0,3.12-.57,5.85-1.7,8.17-1.14,2.33-2.67,4.12-4.58,5.38-1.92,1.26-3.96,2.19-6.12,2.79-2.17.6-4.45.91-6.81.91h-5.68v-6.64h6.51c3.39,0,6.05-1.02,7.99-3.07,1.94-2.04,2.91-4.61,2.91-7.69s-.89-5.5-2.68-7.44c-1.79-1.95-4.35-2.92-7.68-2.92s-5.76,1.1-7.61,3.29c-1.84,2.19-2.76,5.08-2.76,8.67h0Zm77.25,28.45v6.66h-30.11v-40.33c0-3.72,1.18-6.72,3.55-9,1.62-1.51,3.43-2.5,5.45-2.96,2.02-.45,4.49-.67,7.41-.67h13.7v6.66h-14.68c-5.55,0-8.32,2.32-8.32,6.96v8.63h17.47v6.66h-17.47v17.4h23Zm26.03-12.71v19.37h-6.73v-33.29c0-5.45,1.75-10.09,5.25-13.92,3.51-3.83,8.03-5.75,13.58-5.75h17.32v52.96h-7.1v-46.3h-10.22c-3.68,0-6.62,1.08-8.82,3.24-2.19,2.17-3.29,5.63-3.29,10.37v6.43c2.82-2.97,6.86-4.46,12.11-4.46h6.89v6.66h-6.89c-2.92,0-5.31.35-7.15,1.06-1.83.7-3.49,1.92-4.95,3.63h0Zm83.75,9.91v9.46h-7.25v-9.46c0-5.7-1.25-9.72-3.75-12.06-2.49-2.35-7.25-3.55-14.27-3.59v25.12h-7.1v-52.96h7.1v21.57c3.73.1,5.96.2,6.67.29l10.66-21.86h7.72l-11.95,23.54c8.12,2.97,12.17,9.62,12.17,19.96h0Z"/></g></svg>

